<svg version="1.1" id="Layer_1" xmlns="http://www.w3.org/2000/svg" xmlns:xlink="http://www.w3.org/1999/xlink" x="0px" y="0px"
	 width="100%" viewBox="0 0 612 612" enable-background="new 0 0 612 612" xml:space="preserve">
<path fill="#1E7FAA" opacity="1.000000" stroke="none" 
	d="
M426.000000,613.000000 
	C284.000061,613.000000 142.500122,613.000000 1.000133,613.000000 
	C1.000089,409.000153 1.000089,205.000290 1.000044,1.000324 
	C204.999771,1.000216 408.999542,1.000216 612.999512,1.000108 
	C612.999634,204.999695 612.999634,408.999390 612.999817,612.999512 
	C550.833313,613.000000 488.666656,613.000000 426.000000,613.000000 
M256.939362,177.025208 
	C257.080322,180.389297 257.221283,183.753372 257.211090,188.028900 
	C257.188019,214.170502 257.195496,240.312225 257.091522,266.453491 
	C257.081848,268.888733 256.790466,271.486206 255.916748,273.730743 
	C232.137817,334.817841 208.337494,395.896851 184.343903,456.899780 
	C179.998825,467.947083 180.434204,478.673126 184.505264,489.482178 
	C190.005035,504.084656 200.790619,513.908081 212.990936,521.835999 
	C210.532898,522.227966 208.082062,522.674500 205.615417,523.001404 
	C199.203384,523.850952 192.765381,524.530945 186.385010,525.569153 
	C185.172028,525.766541 183.138580,527.558899 183.289902,528.162537 
	C183.636536,529.545105 184.905579,530.936035 186.164429,531.780457 
	C187.339401,532.568542 188.961960,532.821594 190.426971,533.022827 
	C197.816055,534.037598 205.192871,535.425293 212.620163,535.825745 
	C236.043228,537.088684 259.484528,538.735535 282.923187,538.808777 
	C314.177704,538.906433 345.437225,537.701782 376.692627,536.972168 
	C383.674377,536.809143 390.684814,536.629883 397.616669,535.865295 
	C407.868774,534.734619 418.078979,533.175598 428.261932,531.521240 
	C429.677155,531.291260 430.835236,529.478210 432.112366,528.398071 
	C430.765686,527.606201 429.500458,526.350952 428.059143,526.097717 
	C418.723145,524.457214 409.348755,523.035034 400.590729,521.117920 
	C407.037170,515.919678 414.393250,511.511993 419.740814,505.358795 
	C430.888977,492.531189 436.850830,477.247406 430.412872,460.528595 
	C407.024750,399.791656 382.906036,339.336365 359.313049,278.677551 
	C357.264801,273.411407 356.219513,267.445221 356.130066,261.781738 
	C355.774994,239.296906 355.965363,216.803085 356.006775,194.312698 
	C356.012573,191.156494 356.313477,188.000824 356.720428,184.145172 
	C356.940704,181.502472 357.161011,178.859756 358.217010,176.188782 
	C359.382660,176.166580 360.551300,176.190231 361.713440,176.114441 
	C367.434265,175.741348 371.326263,172.087921 371.623901,166.844910 
	C371.936493,161.338074 368.346130,157.200699 362.433807,156.392883 
	C360.792267,156.168625 359.110657,156.180191 357.447449,156.179855 
	C325.132141,156.173325 292.816803,156.177460 260.501495,156.192307 
	C257.670380,156.193604 254.832260,156.175186 252.009705,156.356873 
	C246.282471,156.725555 242.219742,160.978012 242.285309,166.373306 
	C242.349060,171.619598 246.240997,175.648712 251.764236,176.086075 
	C253.419800,176.217163 255.092896,176.126556 256.939362,177.025208 
M337.860840,75.711281 
	C327.654297,74.710312 319.615143,80.981041 319.032013,90.398170 
	C318.461273,99.615524 325.387299,107.390991 334.487213,107.748795 
	C342.152802,108.050201 349.430267,102.461815 350.896729,95.147896 
	C352.695618,86.175659 348.219086,79.122818 337.860840,75.711281 
M288.524353,93.762611 
	C287.284698,93.284569 286.079437,92.666840 284.799622,92.352081 
	C278.453888,90.791428 272.028870,93.232712 268.592926,98.424141 
	C265.175812,103.587112 265.119568,110.616936 268.457428,115.351074 
	C272.386505,120.923737 278.684418,123.327545 285.056091,121.500793 
	C290.592285,119.913567 294.365784,116.323372 295.637054,110.665443 
	C297.174744,103.821846 295.003235,98.218048 288.524353,93.762611 
M336.921143,135.931900 
	C334.492767,131.125015 331.383026,129.391357 327.655762,130.929306 
	C324.123077,132.386948 322.515778,135.170547 323.252533,138.894531 
	C323.994934,142.647018 326.669067,144.758148 330.401520,144.443527 
	C334.819794,144.071121 337.230286,141.371918 336.921143,135.931900 
z"/>
<path fill="#A8DCF1" opacity="1.000000" stroke="none" 
	d="
M213.914719,521.554382 
	C200.790619,513.908081 190.005035,504.084656 184.505264,489.482178 
	C180.434204,478.673126 179.998825,467.947083 184.343903,456.899780 
	C208.337494,395.896851 232.137817,334.817841 255.916748,273.730743 
	C256.790466,271.486206 257.081848,268.888733 257.091522,266.453491 
	C257.195496,240.312225 257.188019,214.170502 257.730530,187.552490 
	C263.210754,187.097305 268.171539,187.118515 273.109558,187.595947 
	C273.073792,215.346878 273.111908,242.641815 272.983429,269.935974 
	C272.967285,273.368622 272.650177,277.008789 271.482117,280.189026 
	C267.527435,290.956421 262.999542,301.511841 258.934631,312.240662 
	C255.109909,322.335571 251.594055,332.547455 247.869659,342.929199 
	C247.796997,343.150482 247.683014,343.602142 247.400269,343.817200 
	C246.543137,345.014862 245.825302,345.941315 245.415054,346.988281 
	C230.004150,386.316040 214.617844,425.653412 199.239105,464.993774 
	C196.784164,471.273712 197.412964,477.617584 200.107468,483.482269 
	C208.301361,501.316559 222.676712,510.313873 242.501587,511.813110 
	C284.977722,511.901581 326.992767,511.928223 369.007782,511.926514 
	C370.992859,511.926453 372.977936,511.675385 375.343262,511.614319 
	C390.032379,509.402893 401.762207,502.704773 409.959778,490.678162 
	C415.187775,483.008179 418.182465,474.292816 414.653046,465.154785 
	C402.136383,432.747406 389.286133,400.468445 376.474670,368.175568 
	C373.175995,359.860901 369.556335,351.673553 366.018982,343.109406 
	C357.739594,321.375336 349.446442,299.989197 341.390717,278.514008 
	C340.083069,275.028076 339.216309,271.152832 339.183777,267.448425 
	C338.948364,240.657364 338.979858,213.863937 339.396637,187.051010 
	C345.403534,186.302139 350.940674,185.573517 356.477783,184.844910 
	C356.313477,188.000824 356.012573,191.156494 356.006775,194.312698 
	C355.965363,216.803085 355.774994,239.296906 356.130066,261.781738 
	C356.219513,267.445221 357.264801,273.411407 359.313049,278.677551 
	C382.906036,339.336365 407.024750,399.791656 430.412872,460.528595 
	C436.850830,477.247406 430.888977,492.531189 419.740814,505.358795 
	C414.393250,511.511993 407.037170,515.919678 399.981384,521.413513 
	C388.716858,527.000916 377.428772,529.039124 365.557739,528.992920 
	C328.270416,528.847717 290.980347,528.729431 253.695175,529.048828 
	C239.825256,529.167664 226.492935,527.687561 213.914719,521.554382 
z"/>
<path fill="#A7DBF2" opacity="1.000000" stroke="none" 
	d="
M256.757965,176.137497 
	C255.092896,176.126556 253.419800,176.217163 251.764236,176.086075 
	C246.240997,175.648712 242.349060,171.619598 242.285309,166.373306 
	C242.219742,160.978012 246.282471,156.725555 252.009705,156.356873 
	C254.832260,156.175186 257.670380,156.193604 260.501495,156.192307 
	C292.816803,156.177460 325.132141,156.173325 357.447449,156.179855 
	C359.110657,156.180191 360.792267,156.168625 362.433807,156.392883 
	C368.346130,157.200699 371.936493,161.338074 371.623901,166.844910 
	C371.326263,172.087921 367.434265,175.741348 361.713440,176.114441 
	C360.551300,176.190231 359.382660,176.166580 357.305603,176.168045 
	C323.182129,176.144043 289.970032,176.140762 256.757965,176.137497 
M254.684494,169.832230 
	C256.760162,169.476181 259.184143,169.637863 260.777893,168.565567 
	C261.700531,167.944809 262.045593,164.403091 261.319672,163.812851 
	C259.678741,162.478699 256.694916,160.993561 255.184891,161.662796 
	C251.647812,163.230347 251.412521,166.362701 254.684494,169.832230 
z"/>
<path fill="#1F779C" opacity="1.000000" stroke="none" 
	d="
M213.452820,521.695190 
	C226.492935,527.687561 239.825256,529.167664 253.695175,529.048828 
	C290.980347,528.729431 328.270416,528.847717 365.557739,528.992920 
	C377.428772,529.039124 388.716858,527.000916 399.679504,521.625244 
	C409.348755,523.035034 418.723145,524.457214 428.059143,526.097717 
	C429.500458,526.350952 430.765686,527.606201 432.112366,528.398071 
	C430.835236,529.478210 429.677155,531.291260 428.261932,531.521240 
	C418.078979,533.175598 407.868774,534.734619 397.616669,535.865295 
	C390.684814,536.629883 383.674377,536.809143 376.692627,536.972168 
	C345.437225,537.701782 314.177704,538.906433 282.923187,538.808777 
	C259.484528,538.735535 236.043228,537.088684 212.620163,535.825745 
	C205.192871,535.425293 197.816055,534.037598 190.426971,533.022827 
	C188.961960,532.821594 187.339401,532.568542 186.164429,531.780457 
	C184.905579,530.936035 183.636536,529.545105 183.289902,528.162537 
	C183.138580,527.558899 185.172028,525.766541 186.385010,525.569153 
	C192.765381,524.530945 199.203384,523.850952 205.615417,523.001404 
	C208.082062,522.674500 210.532898,522.227966 213.452820,521.695190 
z"/>
<path fill="#97C8D9" opacity="1.000000" stroke="none" 
	d="
M256.848663,176.581360 
	C289.970032,176.140762 323.182129,176.144043 356.887756,176.182190 
	C357.161011,178.859756 356.940704,181.502472 356.599121,184.495041 
	C350.940674,185.573517 345.403534,186.302139 338.934570,187.028229 
	C316.379272,187.063705 294.755798,187.101715 273.132355,187.139725 
	C268.171539,187.118515 263.210754,187.097305 257.806091,187.096771 
	C257.221283,183.753372 257.080322,180.389297 256.848663,176.581360 
z"/>
<path fill="#B8DB8D" opacity="1.000000" stroke="none" 
	d="
M338.252319,75.777267 
	C348.219086,79.122818 352.695618,86.175659 350.896729,95.147896 
	C349.430267,102.461815 342.152802,108.050201 334.487213,107.748795 
	C325.387299,107.390991 318.461273,99.615524 319.032013,90.398170 
	C319.615143,80.981041 327.654297,74.710312 338.252319,75.777267 
z"/>
<path fill="#B8DC8E" opacity="1.000000" stroke="none" 
	d="
M288.842804,93.962357 
	C295.003235,98.218048 297.174744,103.821846 295.637054,110.665443 
	C294.365784,116.323372 290.592285,119.913567 285.056091,121.500793 
	C278.684418,123.327545 272.386505,120.923737 268.457428,115.351074 
	C265.119568,110.616936 265.175812,103.587112 268.592926,98.424141 
	C272.028870,93.232712 278.453888,90.791428 284.799622,92.352081 
	C286.079437,92.666840 287.284698,93.284569 288.842804,93.962357 
z"/>
<path fill="#B0D890" opacity="1.000000" stroke="none" 
	d="
M336.960022,136.325775 
	C337.230286,141.371918 334.819794,144.071121 330.401520,144.443527 
	C326.669067,144.758148 323.994934,142.647018 323.252533,138.894531 
	C322.515778,135.170547 324.123077,132.386948 327.655762,130.929306 
	C331.383026,129.391357 334.492767,131.125015 336.960022,136.325775 
z"/>
<path fill="#8EC642" opacity="1.000000" stroke="none" 
	d="
M242.040466,511.745667 
	C222.676712,510.313873 208.301361,501.316559 200.107468,483.482269 
	C197.412964,477.617584 196.784164,471.273712 199.239105,464.993774 
	C214.617844,425.653412 230.004150,386.316040 245.415054,346.988281 
	C245.825302,345.941315 246.543137,345.014862 247.727341,343.842163 
	C248.548721,343.603363 248.760300,343.554565 249.395477,343.574005 
	C251.526855,343.774750 253.234634,343.907227 254.808838,344.367096 
	C239.934570,382.859100 225.050980,420.969940 210.636169,459.257263 
	C208.859253,463.976898 208.919586,469.692200 209.340973,474.847015 
	C209.734985,479.667053 212.173035,484.091339 216.851517,486.595154 
	C221.375412,489.016266 224.438629,487.817596 225.973129,482.887054 
	C231.855850,463.985046 237.650497,445.055664 243.517441,426.148743 
	C251.552643,400.254395 259.647217,374.378418 267.645660,348.472748 
	C268.504974,345.689636 269.662750,343.569397 273.391602,343.573120 
	C288.319122,343.666962 302.778503,343.733185 317.237579,343.696533 
	C333.519867,343.655304 349.801971,343.521362 366.084137,343.427734 
	C369.556335,351.673553 373.175995,359.860901 376.474670,368.175568 
	C389.286133,400.468445 402.136383,432.747406 414.653046,465.154785 
	C418.182465,474.292816 415.187775,483.008179 409.959778,490.678162 
	C401.762207,502.704773 390.032379,509.402893 375.061249,511.390869 
	C372.645111,510.734650 370.891663,510.063477 369.137329,510.061005 
	C328.772797,510.004242 288.408051,509.995636 248.043671,510.095917 
	C246.041245,510.100861 244.041473,511.171326 242.040466,511.745667 
M267.323029,478.225555 
	C268.074402,477.869232 268.869904,477.583466 269.570160,477.145416 
	C275.023621,473.733612 277.589142,468.798859 276.841370,462.401947 
	C276.060791,455.724182 272.056000,451.463287 265.768585,449.673096 
	C259.829071,447.982025 254.616608,449.551636 250.539658,454.440399 
	C246.514160,459.267487 245.840561,466.801147 249.070114,472.202209 
	C252.407928,477.784332 258.460938,479.967499 267.323029,478.225555 
M336.542877,429.191284 
	C334.502838,434.998199 335.379028,439.287048 339.195892,442.177734 
	C343.955444,445.782410 350.954712,444.975311 354.327911,440.432983 
	C357.427185,436.259521 356.486938,428.820007 352.441010,425.503204 
	C347.782318,421.684113 341.314087,422.931854 336.542877,429.191284 
M267.620758,408.899689 
	C273.718567,412.545380 279.934082,410.623596 280.955902,404.663666 
	C281.658447,400.566284 280.729492,396.879303 276.570557,395.079224 
	C273.113037,393.582703 269.581146,393.864227 267.069946,397.019012 
	C264.157349,400.678070 263.987091,404.574738 267.620758,408.899689 
M315.072754,378.242676 
	C318.967712,377.317383 321.673492,374.801666 320.625793,370.913757 
	C320.006378,368.615204 317.354919,366.001984 315.043945,365.216217 
	C311.226135,363.918060 307.736786,366.888428 307.267548,370.710907 
	C306.768707,374.774017 309.157776,377.339600 315.072754,378.242676 
z"/>
<path fill="#DDF1FA" opacity="1.000000" stroke="none" 
	d="
M254.942398,344.039703 
	C253.234634,343.907227 251.526855,343.774750 249.252014,343.409729 
	C248.450668,342.999756 248.203125,342.843323 247.942307,342.707886 
	C251.594055,332.547455 255.109909,322.335571 258.934631,312.240662 
	C262.999542,301.511841 267.527435,290.956421 271.482117,280.189026 
	C272.650177,277.008789 272.967285,273.368622 272.983429,269.935974 
	C273.111908,242.641815 273.073792,215.346878 273.109558,187.595947 
	C294.755798,187.101715 316.379272,187.063705 338.464783,187.048492 
	C338.979858,213.863937 338.948364,240.657364 339.183777,267.448425 
	C339.216309,271.152832 340.083069,275.028076 341.390717,278.514008 
	C349.446442,299.989197 357.739594,321.375336 366.018982,343.109436 
	C349.801971,343.521362 333.519867,343.655304 317.237579,343.696533 
	C302.778503,343.733185 288.319122,343.666962 273.113770,343.428284 
	C271.541290,343.061829 270.714874,342.913208 270.006836,342.413818 
	C274.778900,326.448761 279.460876,310.842804 284.062103,295.213043 
	C284.956482,292.174927 286.139862,288.440369 282.311188,286.888031 
	C278.226776,285.232025 276.356201,288.881683 274.946533,291.864929 
	C273.609985,294.693481 272.982300,297.847290 271.830261,300.774384 
	C266.286652,314.859955 260.671112,328.917267 255.039932,343.247498 
	C254.979996,343.686829 254.961197,343.863251 254.942398,344.039703 
M290.018372,260.406982 
	C290.017609,240.261169 290.032684,220.115341 289.992981,199.969604 
	C289.988739,197.819412 290.230957,195.377670 289.318054,193.608170 
	C288.522125,192.065475 286.305298,190.538391 284.622223,190.427078 
	C283.528809,190.354767 282.144501,192.750641 281.140564,194.212448 
	C280.743530,194.790604 281.000519,195.834442 281.000366,196.666245 
	C280.996582,219.309464 280.995178,241.952667 281.007172,264.595886 
	C281.007782,265.758057 280.714447,267.220337 281.288208,268.016846 
	C282.330444,269.463745 283.887848,271.419281 285.294678,271.472931 
	C286.663300,271.525116 288.791016,269.724884 289.363586,268.260376 
	C290.171265,266.194275 289.854248,263.688507 290.018372,260.406982 
M307.803345,247.385895 
	C303.064484,255.240860 306.633453,264.071655 314.855774,264.835968 
	C319.494263,265.267151 324.461914,262.308014 326.126740,258.122070 
	C327.859070,253.766327 326.289734,248.541931 322.373077,245.626053 
	C317.967041,242.345840 313.660461,242.722031 307.803345,247.385895 
M311.662903,309.991241 
	C308.373901,306.387939 304.525940,305.847443 300.523743,308.462250 
	C296.806458,310.890930 296.212189,314.669952 297.562408,318.602325 
	C298.936584,322.604431 302.233978,324.070526 306.247986,323.762909 
	C312.473114,323.285767 315.040344,317.412048 311.662903,309.991241 
z"/>
<path fill="#8CCB33" opacity="1.000000" stroke="none" 
	d="
M242.501587,511.813110 
	C244.041473,511.171326 246.041245,510.100861 248.043671,510.095917 
	C288.408051,509.995636 328.772797,510.004242 369.137329,510.061005 
	C370.891663,510.063477 372.645111,510.734650 374.680969,511.317749 
	C372.977936,511.675385 370.992859,511.926453 369.007782,511.926514 
	C326.992767,511.928223 284.977722,511.901581 242.501587,511.813110 
z"/>
<path fill="#DAEDC2" opacity="1.000000" stroke="none" 
	d="
M247.869659,342.929199 
	C248.203125,342.843323 248.450668,342.999756 248.828415,343.341461 
	C248.760300,343.554565 248.548721,343.603363 248.010086,343.627136 
	C247.683014,343.602142 247.796997,343.150482 247.869659,342.929199 
z"/>
<path fill="#F5F9FE" opacity="1.000000" stroke="none" 
	d="
M254.400360,169.606293 
	C251.412521,166.362701 251.647812,163.230347 255.184891,161.662796 
	C256.694916,160.993561 259.678741,162.478699 261.319672,163.812851 
	C262.045593,164.403091 261.700531,167.944809 260.777893,168.565567 
	C259.184143,169.637863 256.760162,169.476181 254.400360,169.606293 
z"/>
<path fill="#DAEDC2" opacity="1.000000" stroke="none" 
	d="
M254.808838,344.367096 
	C254.961197,343.863251 254.979996,343.686829 255.492096,343.320862 
	C260.619781,343.009064 265.254120,342.886841 269.888489,342.764587 
	C270.714874,342.913208 271.541290,343.061829 272.645477,343.355286 
	C269.662750,343.569397 268.504974,345.689636 267.645660,348.472748 
	C259.647217,374.378418 251.552643,400.254395 243.517441,426.148743 
	C237.650497,445.055664 231.855850,463.985046 225.973129,482.887054 
	C224.438629,487.817596 221.375412,489.016266 216.851517,486.595154 
	C212.173035,484.091339 209.734985,479.667053 209.340973,474.847015 
	C208.919586,469.692200 208.859253,463.976898 210.636169,459.257263 
	C225.050980,420.969940 239.934570,382.859100 254.808838,344.367096 
z"/>
<path fill="#BBDD8A" opacity="1.000000" stroke="none" 
	d="
M266.939758,478.367371 
	C258.460938,479.967499 252.407928,477.784332 249.070114,472.202209 
	C245.840561,466.801147 246.514160,459.267487 250.539658,454.440399 
	C254.616608,449.551636 259.829071,447.982025 265.768585,449.673096 
	C272.056000,451.463287 276.060791,455.724182 276.841370,462.401947 
	C277.589142,468.798859 275.023621,473.733612 269.570160,477.145416 
	C268.869904,477.583466 268.074402,477.869232 266.939758,478.367371 
z"/>
<path fill="#BBDD89" opacity="1.000000" stroke="none" 
	d="
M336.705261,428.849274 
	C341.314087,422.931854 347.782318,421.684113 352.441010,425.503204 
	C356.486938,428.820007 357.427185,436.259521 354.327911,440.432983 
	C350.954712,444.975311 343.955444,445.782410 339.195892,442.177734 
	C335.379028,439.287048 334.502838,434.998199 336.705261,428.849274 
z"/>
<path fill="#BBDD89" opacity="1.000000" stroke="none" 
	d="
M267.343933,408.626587 
	C263.987091,404.574738 264.157349,400.678070 267.069946,397.019012 
	C269.581146,393.864227 273.113037,393.582703 276.570557,395.079224 
	C280.729492,396.879303 281.658447,400.566284 280.955902,404.663666 
	C279.934082,410.623596 273.718567,412.545380 267.343933,408.626587 
z"/>
<path fill="#BBDD89" opacity="1.000000" stroke="none" 
	d="
M314.715790,378.284424 
	C309.157776,377.339600 306.768707,374.774017 307.267548,370.710907 
	C307.736786,366.888428 311.226135,363.918060 315.043945,365.216217 
	C317.354919,366.001984 320.006378,368.615204 320.625793,370.913757 
	C321.673492,374.801666 318.967712,377.317383 314.715790,378.284424 
z"/>
<path fill="#F5F9FE" opacity="1.000000" stroke="none" 
	d="
M290.018219,260.888855 
	C289.854248,263.688507 290.171265,266.194275 289.363586,268.260376 
	C288.791016,269.724884 286.663300,271.525116 285.294678,271.472931 
	C283.887848,271.419281 282.330444,269.463745 281.288208,268.016846 
	C280.714447,267.220337 281.007782,265.758057 281.007172,264.595886 
	C280.995178,241.952667 280.996582,219.309464 281.000366,196.666245 
	C281.000519,195.834442 280.743530,194.790604 281.140564,194.212448 
	C282.144501,192.750641 283.528809,190.354767 284.622223,190.427078 
	C286.305298,190.538391 288.522125,192.065475 289.318054,193.608170 
	C290.230957,195.377670 289.988739,197.819412 289.992981,199.969604 
	C290.032684,220.115341 290.017609,240.261169 290.018219,260.888855 
z"/>
<path fill="#F4FAFD" opacity="1.000000" stroke="none" 
	d="
M270.006836,342.413818 
	C265.254120,342.886841 260.619781,343.009064 255.533249,343.057922 
	C260.671112,328.917267 266.286652,314.859955 271.830261,300.774384 
	C272.982300,297.847290 273.609985,294.693481 274.946533,291.864929 
	C276.356201,288.881683 278.226776,285.232025 282.311188,286.888031 
	C286.139862,288.440369 284.956482,292.174927 284.062103,295.213043 
	C279.460876,310.842804 274.778900,326.448761 270.006836,342.413818 
z"/>
<path fill="#BEDE92" opacity="1.000000" stroke="none" 
	d="
M308.059631,247.119919 
	C313.660461,242.722031 317.967041,242.345840 322.373077,245.626053 
	C326.289734,248.541931 327.859070,253.766327 326.126740,258.122070 
	C324.461914,262.308014 319.494263,265.267151 314.855774,264.835968 
	C306.633453,264.071655 303.064484,255.240860 308.059631,247.119919 
z"/>
<path fill="#BEDE94" opacity="1.000000" stroke="none" 
	d="
M311.895477,310.273590 
	C315.040344,317.412048 312.473114,323.285767 306.247986,323.762909 
	C302.233978,324.070526 298.936584,322.604431 297.562408,318.602325 
	C296.212189,314.669952 296.806458,310.890930 300.523743,308.462250 
	C304.525940,305.847443 308.373901,306.387939 311.895477,310.273590 
z"/>
</svg>